<svg id="visual" viewBox="0 0 900 600" width="900" height="600" xmlns="http://www.w3.org/2000/svg" xmlns:xlink="http://www.w3.org/1999/xlink" version="1.1"><rect x="0" y="0" width="900" height="600" fill="#001220"></rect><defs><linearGradient id="grad1_0" x1="33.3%" y1="0%" x2="100%" y2="100%"><stop offset="20%" stop-color="#001220" stop-opacity="1"></stop><stop offset="80%" stop-color="#001220" stop-opacity="1"></stop></linearGradient></defs><defs><linearGradient id="grad2_0" x1="0%" y1="0%" x2="66.7%" y2="100%"><stop offset="20%" stop-color="#001220" stop-opacity="1"></stop><stop offset="80%" stop-color="#001220" stop-opacity="1"></stop></linearGradient></defs><g transform="translate(900, 0)"><path d="M0 486.7C-60.1 473.1 -120.2 459.4 -181.8 438.8C-243.4 418.3 -306.4 390.8 -344.2 344.2C-381.9 297.6 -394.4 232 -413.9 171.4C-433.4 110.9 -460.1 55.5 -486.7 0L0 0Z" fill="#FBAE3C"></path></g><g transform="translate(0, 600)"><path d="M0 -486.7C64.7 -481.8 129.5 -476.9 186.3 -449.7C243.1 -422.5 292 -373 320.3 -320.3C348.6 -267.6 356.3 -211.6 380.6 -157.7C404.9 -103.7 445.8 -51.9 486.7 0L0 0Z" fill="#FBAE3C"></path></g></svg>